If you must download and send. Keep active torrents for other! Thanks
Se si scarica devi inviare. Mantenere torrents attivi per altri! Grazie
Daca descarci trebuie sa trimiti. Pastreaza torrentul activ si pentru alti! Mersi
---------------------------------------------------------------------------------


Shark.Tale.2004 [Eng-Ita] H264-MarGelaTu.mp4 - http://www.imdb.com/title/tt0307453/
-----------------------------------------------------------------------------------

      Format : MPEG-4
      Format profile : Base Media / Version 2
      Codec ID : mp42
      File size : 1.28 GiB
      Duration : 1h 26mn
      Overall bit rate : 2 129 Kbps
      
   Video #1
      ID : 1
      Format : AVC
      Format/Info : Advanced Video Codec
      Format profile : High@L3.1
      Format settings, CABAC : Yes
      Format settings, ReFrames : 8 frames
      Codec ID : avc1
      Codec ID/Info : Advanced Video Coding
      Duration : 1h 26mn
      Bit rate mode : Variable
      Bit rate : 1 739 Kbps
      Width : 720 pixels
      Height : 544 pixels
      Display aspect ratio : 1.855
      Original display aspect ratio : 1.856
      Frame rate mode : Constant
      Frame rate : 25.000 fps
      Resolution : 24 bits
      Colorimetry : 4:2:0
      Scan type : Progressive
      Bits/(Pixel*Frame) : 0.178
      Stream size : 1.05 GiB (82%)
      Writing library : x264 core 79
     
   Audio #2
      ID : 2
      Format : AAC
      Format/Info : Advanced Audio Codec
      Format version : Version 4
      Format profile : LC
      Format settings, SBR : No
      Codec ID : 40
      Duration : 1h 26mn
      Bit rate mode : Variable
      Bit rate : 192 Kbps
      Maximum bit rate : 260 Kbps
      Channel(s) : 6 channels
      Channel positions : Front: L C R, Rear: L R, LFE
      Sampling rate : 48.0 KHz
      Resolution : 16 bits
      Stream size : 118 MiB (9%)
      Language : English
      
   Audio #3
      ID : 3
      Format : AAC
      Format/Info : Advanced Audio Codec
      Format version : Version 4
      Format profile : LC
      Format settings, SBR : No
      Codec ID : 40
      Duration : 1h 26mn
      Bit rate mode : Variable
      Bit rate : 192 Kbps
      Maximum bit rate : 259 Kbps
      Channel(s) : 6 channels
      Channel positions : Front: L C R, Rear: L R, LFE
      Sampling rate : 48.0 KHz
      Resolution : 16 bits
      Stream size : 118 MiB (9%)
      Language : Italian
     